<svg xmlns="http://www.w3.org/2000/svg" viewBox="0 0 3208.06 1920"><defs><style>.cls-1{fill:#006786;}.cls-2,.cls-4{fill:#001f26;}.cls-2{opacity:0.13;}.cls-3{fill:#f1f1f1;}.cls-4{opacity:0.52;}.cls-5{fill:#e6e6e6;opacity:0.03;}</style></defs><g id="Layer_1" data-name="Layer 1"><rect class="cls-1" width="3208.06" height="1920"/></g><g id="Layer_2" data-name="Layer 2"><rect class="cls-2" x="3146.03" width="62.04" height="1920"/><polygon class="cls-3" points="2639.47 981.68 2589.89 981.89 1628.56 985.95 1578.98 986.16 597.98 990.31 548.4 990.52 548.19 940.93 597.77 940.72 1578.77 936.58 1628.35 936.37 2589.68 932.3 2639.26 932.09 2639.47 981.68"/><polygon class="cls-3" points="1613.54 1920 1597.2 1920 1595.9 986.16 1595.83 936.58 1594.52 0 1610.87 0 1612.17 936.37 1612.24 985.95 1613.54 1920"/><polygon class="cls-4" points="3210.89 1920 3194.55 1920 3193.25 986.16 3193.18 936.58 3191.87 0 3208.22 0 3209.52 936.37 3209.59 985.95 3210.89 1920"/><polygon class="cls-4" points="19.02 1920 2.68 1920 1.38 986.16 1.3 936.58 0 0 16.35 0 17.65 936.37 17.72 985.95 19.02 1920"/><polygon class="cls-3" points="2643.44 1920 2593.85 1920 2589.89 981.89 2589.68 932.3 2585.74 0 2635.32 0 2639.26 932.09 2639.47 981.68 2643.44 1920"/><polygon class="cls-3" points="601.91 1920 552.33 1920 548.4 990.52 548.19 940.93 544.21 0 593.8 0 597.77 940.72 597.98 990.31 601.91 1920"/><polygon class="cls-4" points="1610.87 60.96 1645.6 0 1645.6 1920 1612.05 1838.39 1610.87 60.96"/><rect class="cls-2" width="62.04" height="1920"/><rect class="cls-4" width="3208.24" height="12.63"/><rect class="cls-4" y="1907.37" width="3208.24" height="12.63"/><rect class="cls-5" x="276.14" y="265.53" width="2655.78" height="1381.27"/></g></svg>